<?xml version="1.0" encoding="UTF-8"?>
<svg width="1200pt" height="1200pt" version="1.1" viewBox="0 0 1200 1200" xmlns="http://www.w3.org/2000/svg">
 <path d="m1057.2 516-56.398-296.4c-9.6016-54-57.602-93.602-112.8-93.602h-554.4c-55.199 0-102 39.602-112.8 93.602l-55.199 296.4h-2.3984c-33.602 4.8008-92.398 43.199-92.398 117.6l-0.003907 254.4h82.801v88.801c0 109.2 153.6 108 153.6 0l-0.003906-88.801h607.2v88.801c0 108 154.8 109.2 154.8 0v-88.801h82.801v-253.2c-1.1992-74.402-60-114-94.801-118.8zm-822 206.4c-31.199 0-57.602-25.199-56.398-56.398 0-31.199 25.199-57.602 56.398-56.398 31.199 0 56.398 25.199 56.398 56.398 1.2031 31.199-25.199 56.398-56.398 56.398zm654-206.4-4.8008-25.199c-6-33.602-22.801-56.398-46.801-69.602-10.801-6-21.602-9.6016-33.602-12-9.6016-2.3984-19.199-2.3984-28.801-2.3984-9.6016 0-19.199 1.1992-28.801 2.3984-12 2.3984-24 7.1992-33.602 12-24 13.199-40.801 36-46.801 69.602l-4.793 25.199h-105.6l-4.8008-25.199c-6-33.602-22.801-56.398-46.801-69.602-10.801-6-21.602-9.6016-33.602-12-9.6016-2.3984-19.199-2.3984-28.801-2.3984s-19.199 1.1992-28.801 2.3984c-12 2.3984-24 7.1992-33.602 12-24 13.199-40.801 36-46.801 69.602l-5.9922 25.199h-84l48-255.6c7.1992-39.602 42-67.199 81.602-67.199h480c39.602 0 74.398 28.801 81.602 67.199l48 255.6zm99.602 206.4c-31.199 0-56.398-25.199-57.602-56.398 0-31.199 25.199-57.602 57.602-56.398 31.199 0 56.398 25.199 56.398 56.398s-26.398 56.398-56.398 56.398zm-476.4-404.4c0 39.602-32.398 72-72 72-39.602 0-72-32.398-72-72s32.398-72 72-72c39.602 0 72 31.199 72 72zm334.8 0c0 39.602-32.398 72-72 72-39.602 0-72-32.398-72-72s32.398-72 72-72c39.602 0 72 31.199 72 72z"/>
</svg>
